<mxfile host="Electron" modified="2024-05-22T08:50:49.139Z" agent="Mozilla/5.0 (X11; Linux x86_64) AppleWebKit/537.36 (KHTML, like Gecko) draw.io/23.1.5 Chrome/120.0.6099.109 Electron/28.1.0 Safari/537.36" etag="pAmfOK86fgyhJToXMymW" version="23.1.5" type="device">
  <diagram id="vl9aBEHOvvUakpY_Ycra" name="Page-1">
    <mxGraphModel dx="1434" dy="774" grid="1" gridSize="10" guides="1" tooltips="1" connect="1" arrows="1" fold="1" page="1" pageScale="1" pageWidth="850" pageHeight="1100" math="1" shadow="0">
      <root>
        <mxCell id="0" />
        <mxCell id="1" parent="0" />
        <mxCell id="dgq8y-L6Q3fRpagye3nQ-1" value="$$Q_0$$" style="text;html=1;strokeColor=none;fillColor=none;align=center;verticalAlign=middle;whiteSpace=wrap;rounded=0;" parent="1" vertex="1">
          <mxGeometry x="300" y="290" width="30" height="20" as="geometry" />
        </mxCell>
        <mxCell id="dgq8y-L6Q3fRpagye3nQ-11" value="$$Q_1$$" style="text;html=1;strokeColor=none;fillColor=none;align=center;verticalAlign=middle;whiteSpace=wrap;rounded=0;" parent="1" vertex="1">
          <mxGeometry x="330" y="290" width="30" height="20" as="geometry" />
        </mxCell>
        <mxCell id="dgq8y-L6Q3fRpagye3nQ-12" value="$$Q_2$$" style="text;html=1;strokeColor=none;fillColor=none;align=center;verticalAlign=middle;whiteSpace=wrap;rounded=0;" parent="1" vertex="1">
          <mxGeometry x="360" y="290" width="30" height="20" as="geometry" />
        </mxCell>
        <mxCell id="dgq8y-L6Q3fRpagye3nQ-13" value="$$Q_3$$" style="text;html=1;strokeColor=none;fillColor=none;align=center;verticalAlign=middle;whiteSpace=wrap;rounded=0;" parent="1" vertex="1">
          <mxGeometry x="390" y="290" width="30" height="20" as="geometry" />
        </mxCell>
        <mxCell id="dgq8y-L6Q3fRpagye3nQ-14" value="$$Q_4$$" style="text;html=1;strokeColor=none;fillColor=none;align=center;verticalAlign=middle;whiteSpace=wrap;rounded=0;" parent="1" vertex="1">
          <mxGeometry x="420" y="290" width="30" height="20" as="geometry" />
        </mxCell>
        <mxCell id="dgq8y-L6Q3fRpagye3nQ-15" value="$$Q_5$$" style="text;html=1;strokeColor=none;fillColor=none;align=center;verticalAlign=middle;whiteSpace=wrap;rounded=0;" parent="1" vertex="1">
          <mxGeometry x="450" y="290" width="30" height="20" as="geometry" />
        </mxCell>
        <mxCell id="dgq8y-L6Q3fRpagye3nQ-16" value="$$Q_6$$" style="text;html=1;strokeColor=none;fillColor=none;align=center;verticalAlign=middle;whiteSpace=wrap;rounded=0;" parent="1" vertex="1">
          <mxGeometry x="480" y="290" width="30" height="20" as="geometry" />
        </mxCell>
        <mxCell id="dgq8y-L6Q3fRpagye3nQ-35" value="" style="rounded=0;whiteSpace=wrap;html=1;fillColor=#EA6B66;strokeColor=#000000;" parent="1" vertex="1">
          <mxGeometry x="300" y="280" width="30" height="10" as="geometry" />
        </mxCell>
        <mxCell id="dgq8y-L6Q3fRpagye3nQ-67" value="" style="rounded=0;whiteSpace=wrap;html=1;fillColor=#97D077;strokeColor=#000000;" parent="1" vertex="1">
          <mxGeometry x="330" y="280" width="30" height="10" as="geometry" />
        </mxCell>
        <mxCell id="dgq8y-L6Q3fRpagye3nQ-68" value="" style="rounded=0;whiteSpace=wrap;html=1;fillColor=#007FFF;" parent="1" vertex="1">
          <mxGeometry x="360" y="280" width="30" height="10" as="geometry" />
        </mxCell>
        <mxCell id="dgq8y-L6Q3fRpagye3nQ-69" value="" style="rounded=0;whiteSpace=wrap;html=1;fillColor=#00FFFF;" parent="1" vertex="1">
          <mxGeometry x="390" y="280" width="30" height="10" as="geometry" />
        </mxCell>
        <mxCell id="dgq8y-L6Q3fRpagye3nQ-70" value="" style="rounded=0;whiteSpace=wrap;html=1;fillColor=#FF00FF;" parent="1" vertex="1">
          <mxGeometry x="420" y="280" width="30" height="10" as="geometry" />
        </mxCell>
        <mxCell id="dgq8y-L6Q3fRpagye3nQ-71" value="" style="rounded=0;whiteSpace=wrap;html=1;fillColor=#FFFF33;" parent="1" vertex="1">
          <mxGeometry x="450" y="280" width="30" height="10" as="geometry" />
        </mxCell>
        <mxCell id="dgq8y-L6Q3fRpagye3nQ-72" value="" style="rounded=0;whiteSpace=wrap;html=1;gradientColor=none;gradientDirection=west;fillColor=#333333;perimeterSpacing=0;" parent="1" vertex="1">
          <mxGeometry x="480" y="280" width="30" height="10" as="geometry" />
        </mxCell>
        <mxCell id="dgq8y-L6Q3fRpagye3nQ-73" value="Current" style="text;html=1;strokeColor=none;fillColor=none;align=center;verticalAlign=middle;whiteSpace=wrap;rounded=0;fontStyle=1" parent="1" vertex="1">
          <mxGeometry x="385" y="260" width="40" height="20" as="geometry" />
        </mxCell>
        <mxCell id="dgq8y-L6Q3fRpagye3nQ-81" value="" style="rounded=0;whiteSpace=wrap;html=1;fillColor=#EA6B66;strokeColor=#000000;" parent="1" vertex="1">
          <mxGeometry x="510" y="280" width="30" height="10" as="geometry" />
        </mxCell>
        <mxCell id="dgq8y-L6Q3fRpagye3nQ-82" value="" style="rounded=0;whiteSpace=wrap;html=1;fillColor=#97D077;strokeColor=#000000;" parent="1" vertex="1">
          <mxGeometry x="540" y="280" width="30" height="10" as="geometry" />
        </mxCell>
        <mxCell id="dgq8y-L6Q3fRpagye3nQ-83" value="" style="rounded=0;whiteSpace=wrap;html=1;fillColor=#007FFF;" parent="1" vertex="1">
          <mxGeometry x="570" y="280" width="30" height="10" as="geometry" />
        </mxCell>
        <mxCell id="dgq8y-L6Q3fRpagye3nQ-84" value="" style="rounded=0;whiteSpace=wrap;html=1;fillColor=#00FFFF;" parent="1" vertex="1">
          <mxGeometry x="600" y="280" width="30" height="10" as="geometry" />
        </mxCell>
        <mxCell id="dgq8y-L6Q3fRpagye3nQ-85" value="" style="rounded=0;whiteSpace=wrap;html=1;fillColor=#FF00FF;" parent="1" vertex="1">
          <mxGeometry x="630" y="280" width="30" height="10" as="geometry" />
        </mxCell>
        <mxCell id="dgq8y-L6Q3fRpagye3nQ-86" value="" style="rounded=0;whiteSpace=wrap;html=1;fillColor=#FFFF33;" parent="1" vertex="1">
          <mxGeometry x="660" y="280" width="30" height="10" as="geometry" />
        </mxCell>
        <mxCell id="dgq8y-L6Q3fRpagye3nQ-87" value="" style="rounded=0;whiteSpace=wrap;html=1;gradientColor=none;gradientDirection=west;fillColor=#333333;perimeterSpacing=0;" parent="1" vertex="1">
          <mxGeometry x="690" y="280" width="30" height="10" as="geometry" />
        </mxCell>
        <mxCell id="dgq8y-L6Q3fRpagye3nQ-88" value="New" style="text;html=1;strokeColor=none;fillColor=none;align=center;verticalAlign=middle;whiteSpace=wrap;rounded=0;" parent="1" vertex="1">
          <mxGeometry x="595" y="260" width="40" height="20" as="geometry" />
        </mxCell>
        <mxCell id="dgq8y-L6Q3fRpagye3nQ-89" value="" style="endArrow=none;html=1;" parent="1" edge="1">
          <mxGeometry width="50" height="50" relative="1" as="geometry">
            <mxPoint x="510" y="300" as="sourcePoint" />
            <mxPoint x="510" y="270" as="targetPoint" />
          </mxGeometry>
        </mxCell>
        <mxCell id="dgq8y-L6Q3fRpagye3nQ-97" value="" style="rounded=0;whiteSpace=wrap;html=1;fillColor=#EA6B66;strokeColor=#000000;" parent="1" vertex="1">
          <mxGeometry x="90" y="280" width="30" height="10" as="geometry" />
        </mxCell>
        <mxCell id="dgq8y-L6Q3fRpagye3nQ-98" value="" style="rounded=0;whiteSpace=wrap;html=1;fillColor=#97D077;strokeColor=#000000;" parent="1" vertex="1">
          <mxGeometry x="120" y="280" width="30" height="10" as="geometry" />
        </mxCell>
        <mxCell id="dgq8y-L6Q3fRpagye3nQ-99" value="" style="rounded=0;whiteSpace=wrap;html=1;fillColor=#007FFF;" parent="1" vertex="1">
          <mxGeometry x="150" y="280" width="30" height="10" as="geometry" />
        </mxCell>
        <mxCell id="dgq8y-L6Q3fRpagye3nQ-100" value="" style="rounded=0;whiteSpace=wrap;html=1;fillColor=#00FFFF;" parent="1" vertex="1">
          <mxGeometry x="180" y="280" width="30" height="10" as="geometry" />
        </mxCell>
        <mxCell id="dgq8y-L6Q3fRpagye3nQ-101" value="" style="rounded=0;whiteSpace=wrap;html=1;fillColor=#FF00FF;" parent="1" vertex="1">
          <mxGeometry x="210" y="280" width="30" height="10" as="geometry" />
        </mxCell>
        <mxCell id="dgq8y-L6Q3fRpagye3nQ-102" value="" style="rounded=0;whiteSpace=wrap;html=1;fillColor=#FFFF33;" parent="1" vertex="1">
          <mxGeometry x="240" y="280" width="30" height="10" as="geometry" />
        </mxCell>
        <mxCell id="dgq8y-L6Q3fRpagye3nQ-103" value="" style="rounded=0;whiteSpace=wrap;html=1;gradientColor=none;gradientDirection=west;fillColor=#333333;perimeterSpacing=0;" parent="1" vertex="1">
          <mxGeometry x="270" y="280" width="30" height="10" as="geometry" />
        </mxCell>
        <mxCell id="dgq8y-L6Q3fRpagye3nQ-104" value="Old" style="text;html=1;strokeColor=none;fillColor=none;align=center;verticalAlign=middle;whiteSpace=wrap;rounded=0;" parent="1" vertex="1">
          <mxGeometry x="175" y="260" width="40" height="20" as="geometry" />
        </mxCell>
        <mxCell id="dgq8y-L6Q3fRpagye3nQ-105" value="" style="endArrow=none;html=1;" parent="1" edge="1">
          <mxGeometry width="50" height="50" relative="1" as="geometry">
            <mxPoint x="299.43" y="300" as="sourcePoint" />
            <mxPoint x="299.43" y="270" as="targetPoint" />
          </mxGeometry>
        </mxCell>
        <mxCell id="dgq8y-L6Q3fRpagye3nQ-113" value="" style="rounded=0;whiteSpace=wrap;html=1;fillColor=#EA6B66;strokeColor=#000000;" parent="1" vertex="1">
          <mxGeometry x="300" y="370" width="30" height="10" as="geometry" />
        </mxCell>
        <mxCell id="dgq8y-L6Q3fRpagye3nQ-114" value="" style="rounded=0;whiteSpace=wrap;html=1;fillColor=#97D077;strokeColor=#000000;" parent="1" vertex="1">
          <mxGeometry x="330" y="370" width="30" height="10" as="geometry" />
        </mxCell>
        <mxCell id="dgq8y-L6Q3fRpagye3nQ-115" value="" style="rounded=0;whiteSpace=wrap;html=1;fillColor=#007FFF;" parent="1" vertex="1">
          <mxGeometry x="360" y="370" width="30" height="10" as="geometry" />
        </mxCell>
        <mxCell id="dgq8y-L6Q3fRpagye3nQ-116" value="" style="rounded=0;whiteSpace=wrap;html=1;fillColor=#00FFFF;" parent="1" vertex="1">
          <mxGeometry x="390" y="370" width="30" height="10" as="geometry" />
        </mxCell>
        <mxCell id="dgq8y-L6Q3fRpagye3nQ-117" value="" style="rounded=0;whiteSpace=wrap;html=1;fillColor=#FF00FF;" parent="1" vertex="1">
          <mxGeometry x="420" y="370" width="30" height="10" as="geometry" />
        </mxCell>
        <mxCell id="dgq8y-L6Q3fRpagye3nQ-118" value="" style="rounded=0;whiteSpace=wrap;html=1;fillColor=#FFFF33;" parent="1" vertex="1">
          <mxGeometry x="450" y="370" width="30" height="10" as="geometry" />
        </mxCell>
        <mxCell id="dgq8y-L6Q3fRpagye3nQ-119" value="" style="rounded=0;whiteSpace=wrap;html=1;gradientColor=none;gradientDirection=west;fillColor=#333333;perimeterSpacing=0;" parent="1" vertex="1">
          <mxGeometry x="480" y="370" width="30" height="10" as="geometry" />
        </mxCell>
        <mxCell id="dgq8y-L6Q3fRpagye3nQ-120" value="Old" style="text;html=1;strokeColor=none;fillColor=none;align=center;verticalAlign=middle;whiteSpace=wrap;rounded=0;" parent="1" vertex="1">
          <mxGeometry x="385" y="350" width="40" height="20" as="geometry" />
        </mxCell>
        <mxCell id="dgq8y-L6Q3fRpagye3nQ-128" value="" style="rounded=0;whiteSpace=wrap;html=1;fillColor=#EA6B66;strokeColor=#000000;" parent="1" vertex="1">
          <mxGeometry x="510" y="370" width="30" height="10" as="geometry" />
        </mxCell>
        <mxCell id="dgq8y-L6Q3fRpagye3nQ-129" value="" style="rounded=0;whiteSpace=wrap;html=1;fillColor=#97D077;strokeColor=#000000;" parent="1" vertex="1">
          <mxGeometry x="540" y="370" width="30" height="10" as="geometry" />
        </mxCell>
        <mxCell id="dgq8y-L6Q3fRpagye3nQ-130" value="" style="rounded=0;whiteSpace=wrap;html=1;fillColor=#007FFF;" parent="1" vertex="1">
          <mxGeometry x="570" y="370" width="30" height="10" as="geometry" />
        </mxCell>
        <mxCell id="dgq8y-L6Q3fRpagye3nQ-131" value="" style="rounded=0;whiteSpace=wrap;html=1;fillColor=#00FFFF;" parent="1" vertex="1">
          <mxGeometry x="600" y="370" width="30" height="10" as="geometry" />
        </mxCell>
        <mxCell id="dgq8y-L6Q3fRpagye3nQ-132" value="" style="rounded=0;whiteSpace=wrap;html=1;fillColor=#FF00FF;" parent="1" vertex="1">
          <mxGeometry x="630" y="370" width="30" height="10" as="geometry" />
        </mxCell>
        <mxCell id="dgq8y-L6Q3fRpagye3nQ-133" value="" style="rounded=0;whiteSpace=wrap;html=1;fillColor=#FFFF33;" parent="1" vertex="1">
          <mxGeometry x="660" y="370" width="30" height="10" as="geometry" />
        </mxCell>
        <mxCell id="dgq8y-L6Q3fRpagye3nQ-134" value="" style="rounded=0;whiteSpace=wrap;html=1;gradientColor=none;gradientDirection=west;fillColor=#333333;perimeterSpacing=0;" parent="1" vertex="1">
          <mxGeometry x="690" y="370" width="30" height="10" as="geometry" />
        </mxCell>
        <mxCell id="dgq8y-L6Q3fRpagye3nQ-135" value="Current" style="text;html=1;strokeColor=none;fillColor=none;align=center;verticalAlign=middle;whiteSpace=wrap;rounded=0;fontStyle=1" parent="1" vertex="1">
          <mxGeometry x="595" y="350" width="40" height="20" as="geometry" />
        </mxCell>
        <mxCell id="dgq8y-L6Q3fRpagye3nQ-136" value="" style="endArrow=none;html=1;" parent="1" edge="1">
          <mxGeometry width="50" height="50" relative="1" as="geometry">
            <mxPoint x="510" y="390" as="sourcePoint" />
            <mxPoint x="510" y="360" as="targetPoint" />
          </mxGeometry>
        </mxCell>
        <mxCell id="dgq8y-L6Q3fRpagye3nQ-144" value="" style="rounded=0;whiteSpace=wrap;html=1;fillColor=#EA6B66;strokeColor=#000000;" parent="1" vertex="1">
          <mxGeometry x="90" y="370" width="30" height="10" as="geometry" />
        </mxCell>
        <mxCell id="dgq8y-L6Q3fRpagye3nQ-145" value="" style="rounded=0;whiteSpace=wrap;html=1;fillColor=#97D077;strokeColor=#000000;" parent="1" vertex="1">
          <mxGeometry x="120" y="370" width="30" height="10" as="geometry" />
        </mxCell>
        <mxCell id="dgq8y-L6Q3fRpagye3nQ-146" value="" style="rounded=0;whiteSpace=wrap;html=1;fillColor=#007FFF;" parent="1" vertex="1">
          <mxGeometry x="150" y="370" width="30" height="10" as="geometry" />
        </mxCell>
        <mxCell id="dgq8y-L6Q3fRpagye3nQ-147" value="" style="rounded=0;whiteSpace=wrap;html=1;fillColor=#00FFFF;" parent="1" vertex="1">
          <mxGeometry x="180" y="370" width="30" height="10" as="geometry" />
        </mxCell>
        <mxCell id="dgq8y-L6Q3fRpagye3nQ-148" value="" style="rounded=0;whiteSpace=wrap;html=1;fillColor=#FF00FF;" parent="1" vertex="1">
          <mxGeometry x="210" y="370" width="30" height="10" as="geometry" />
        </mxCell>
        <mxCell id="dgq8y-L6Q3fRpagye3nQ-149" value="" style="rounded=0;whiteSpace=wrap;html=1;fillColor=#FFFF33;" parent="1" vertex="1">
          <mxGeometry x="240" y="370" width="30" height="10" as="geometry" />
        </mxCell>
        <mxCell id="dgq8y-L6Q3fRpagye3nQ-150" value="" style="rounded=0;whiteSpace=wrap;html=1;gradientColor=none;gradientDirection=west;fillColor=#333333;perimeterSpacing=0;" parent="1" vertex="1">
          <mxGeometry x="270" y="370" width="30" height="10" as="geometry" />
        </mxCell>
        <mxCell id="dgq8y-L6Q3fRpagye3nQ-151" value="New" style="text;html=1;strokeColor=none;fillColor=none;align=center;verticalAlign=middle;whiteSpace=wrap;rounded=0;" parent="1" vertex="1">
          <mxGeometry x="175" y="350" width="40" height="20" as="geometry" />
        </mxCell>
        <mxCell id="dgq8y-L6Q3fRpagye3nQ-152" value="" style="endArrow=none;html=1;" parent="1" edge="1">
          <mxGeometry width="50" height="50" relative="1" as="geometry">
            <mxPoint x="299.43000000000006" y="390" as="sourcePoint" />
            <mxPoint x="299.43000000000006" y="360" as="targetPoint" />
          </mxGeometry>
        </mxCell>
        <mxCell id="dgq8y-L6Q3fRpagye3nQ-160" value="" style="rounded=0;whiteSpace=wrap;html=1;fillColor=#EA6B66;strokeColor=#000000;" parent="1" vertex="1">
          <mxGeometry x="300" y="460" width="30" height="10" as="geometry" />
        </mxCell>
        <mxCell id="dgq8y-L6Q3fRpagye3nQ-161" value="" style="rounded=0;whiteSpace=wrap;html=1;fillColor=#97D077;strokeColor=#000000;" parent="1" vertex="1">
          <mxGeometry x="330" y="460" width="30" height="10" as="geometry" />
        </mxCell>
        <mxCell id="dgq8y-L6Q3fRpagye3nQ-162" value="" style="rounded=0;whiteSpace=wrap;html=1;fillColor=#007FFF;" parent="1" vertex="1">
          <mxGeometry x="360" y="460" width="30" height="10" as="geometry" />
        </mxCell>
        <mxCell id="dgq8y-L6Q3fRpagye3nQ-163" value="" style="rounded=0;whiteSpace=wrap;html=1;fillColor=#00FFFF;" parent="1" vertex="1">
          <mxGeometry x="390" y="460" width="30" height="10" as="geometry" />
        </mxCell>
        <mxCell id="dgq8y-L6Q3fRpagye3nQ-164" value="" style="rounded=0;whiteSpace=wrap;html=1;fillColor=#FF00FF;" parent="1" vertex="1">
          <mxGeometry x="420" y="460" width="30" height="10" as="geometry" />
        </mxCell>
        <mxCell id="dgq8y-L6Q3fRpagye3nQ-165" value="" style="rounded=0;whiteSpace=wrap;html=1;fillColor=#FFFF33;" parent="1" vertex="1">
          <mxGeometry x="450" y="460" width="30" height="10" as="geometry" />
        </mxCell>
        <mxCell id="dgq8y-L6Q3fRpagye3nQ-166" value="" style="rounded=0;whiteSpace=wrap;html=1;gradientColor=none;gradientDirection=west;fillColor=#333333;perimeterSpacing=0;" parent="1" vertex="1">
          <mxGeometry x="480" y="460" width="30" height="10" as="geometry" />
        </mxCell>
        <mxCell id="dgq8y-L6Q3fRpagye3nQ-167" value="New" style="text;html=1;strokeColor=none;fillColor=none;align=center;verticalAlign=middle;whiteSpace=wrap;rounded=0;" parent="1" vertex="1">
          <mxGeometry x="385" y="440" width="40" height="20" as="geometry" />
        </mxCell>
        <mxCell id="dgq8y-L6Q3fRpagye3nQ-175" value="" style="rounded=0;whiteSpace=wrap;html=1;fillColor=#EA6B66;strokeColor=#000000;" parent="1" vertex="1">
          <mxGeometry x="510" y="460" width="30" height="10" as="geometry" />
        </mxCell>
        <mxCell id="dgq8y-L6Q3fRpagye3nQ-176" value="" style="rounded=0;whiteSpace=wrap;html=1;fillColor=#97D077;strokeColor=#000000;" parent="1" vertex="1">
          <mxGeometry x="540" y="460" width="30" height="10" as="geometry" />
        </mxCell>
        <mxCell id="dgq8y-L6Q3fRpagye3nQ-177" value="" style="rounded=0;whiteSpace=wrap;html=1;fillColor=#007FFF;" parent="1" vertex="1">
          <mxGeometry x="570" y="460" width="30" height="10" as="geometry" />
        </mxCell>
        <mxCell id="dgq8y-L6Q3fRpagye3nQ-178" value="" style="rounded=0;whiteSpace=wrap;html=1;fillColor=#00FFFF;" parent="1" vertex="1">
          <mxGeometry x="600" y="460" width="30" height="10" as="geometry" />
        </mxCell>
        <mxCell id="dgq8y-L6Q3fRpagye3nQ-179" value="" style="rounded=0;whiteSpace=wrap;html=1;fillColor=#FF00FF;" parent="1" vertex="1">
          <mxGeometry x="630" y="460" width="30" height="10" as="geometry" />
        </mxCell>
        <mxCell id="dgq8y-L6Q3fRpagye3nQ-180" value="" style="rounded=0;whiteSpace=wrap;html=1;fillColor=#FFFF33;" parent="1" vertex="1">
          <mxGeometry x="660" y="460" width="30" height="10" as="geometry" />
        </mxCell>
        <mxCell id="dgq8y-L6Q3fRpagye3nQ-181" value="" style="rounded=0;whiteSpace=wrap;html=1;gradientColor=none;gradientDirection=west;fillColor=#333333;perimeterSpacing=0;" parent="1" vertex="1">
          <mxGeometry x="690" y="460" width="30" height="10" as="geometry" />
        </mxCell>
        <mxCell id="dgq8y-L6Q3fRpagye3nQ-182" value="Old" style="text;html=1;strokeColor=none;fillColor=none;align=center;verticalAlign=middle;whiteSpace=wrap;rounded=0;" parent="1" vertex="1">
          <mxGeometry x="595" y="440" width="40" height="20" as="geometry" />
        </mxCell>
        <mxCell id="dgq8y-L6Q3fRpagye3nQ-183" value="" style="endArrow=none;html=1;" parent="1" edge="1">
          <mxGeometry width="50" height="50" relative="1" as="geometry">
            <mxPoint x="510" y="480" as="sourcePoint" />
            <mxPoint x="510" y="450" as="targetPoint" />
          </mxGeometry>
        </mxCell>
        <mxCell id="dgq8y-L6Q3fRpagye3nQ-191" value="" style="rounded=0;whiteSpace=wrap;html=1;fillColor=#EA6B66;strokeColor=#000000;" parent="1" vertex="1">
          <mxGeometry x="90" y="460" width="30" height="10" as="geometry" />
        </mxCell>
        <mxCell id="dgq8y-L6Q3fRpagye3nQ-192" value="" style="rounded=0;whiteSpace=wrap;html=1;fillColor=#97D077;strokeColor=#000000;" parent="1" vertex="1">
          <mxGeometry x="120" y="460" width="30" height="10" as="geometry" />
        </mxCell>
        <mxCell id="dgq8y-L6Q3fRpagye3nQ-193" value="" style="rounded=0;whiteSpace=wrap;html=1;fillColor=#007FFF;" parent="1" vertex="1">
          <mxGeometry x="150" y="460" width="30" height="10" as="geometry" />
        </mxCell>
        <mxCell id="dgq8y-L6Q3fRpagye3nQ-194" value="" style="rounded=0;whiteSpace=wrap;html=1;fillColor=#00FFFF;" parent="1" vertex="1">
          <mxGeometry x="180" y="460" width="30" height="10" as="geometry" />
        </mxCell>
        <mxCell id="dgq8y-L6Q3fRpagye3nQ-195" value="" style="rounded=0;whiteSpace=wrap;html=1;fillColor=#FF00FF;" parent="1" vertex="1">
          <mxGeometry x="210" y="460" width="30" height="10" as="geometry" />
        </mxCell>
        <mxCell id="dgq8y-L6Q3fRpagye3nQ-196" value="" style="rounded=0;whiteSpace=wrap;html=1;fillColor=#FFFF33;" parent="1" vertex="1">
          <mxGeometry x="240" y="460" width="30" height="10" as="geometry" />
        </mxCell>
        <mxCell id="dgq8y-L6Q3fRpagye3nQ-197" value="" style="rounded=0;whiteSpace=wrap;html=1;gradientColor=none;gradientDirection=west;fillColor=#333333;perimeterSpacing=0;" parent="1" vertex="1">
          <mxGeometry x="270" y="460" width="30" height="10" as="geometry" />
        </mxCell>
        <mxCell id="dgq8y-L6Q3fRpagye3nQ-198" value="Current" style="text;html=1;strokeColor=none;fillColor=none;align=center;verticalAlign=middle;whiteSpace=wrap;rounded=0;fontStyle=1" parent="1" vertex="1">
          <mxGeometry x="175" y="440" width="40" height="20" as="geometry" />
        </mxCell>
        <mxCell id="dgq8y-L6Q3fRpagye3nQ-199" value="" style="endArrow=none;html=1;" parent="1" edge="1">
          <mxGeometry width="50" height="50" relative="1" as="geometry">
            <mxPoint x="299.43000000000006" y="480" as="sourcePoint" />
            <mxPoint x="299.43000000000006" y="450" as="targetPoint" />
          </mxGeometry>
        </mxCell>
        <mxCell id="dgq8y-L6Q3fRpagye3nQ-204" value="" style="endArrow=classic;html=1;strokeColor=#000000;rounded=1;" parent="1" edge="1">
          <mxGeometry width="50" height="50" relative="1" as="geometry">
            <mxPoint x="404" y="490" as="sourcePoint" />
            <mxPoint x="404" y="260" as="targetPoint" />
            <Array as="points">
              <mxPoint x="404" y="510" />
              <mxPoint x="64" y="510" />
              <mxPoint x="64" y="240" />
              <mxPoint x="404" y="240" />
            </Array>
          </mxGeometry>
        </mxCell>
        <mxCell id="dgq8y-L6Q3fRpagye3nQ-206" value="" style="endArrow=classic;html=1;strokeColor=#000000;exitX=0.5;exitY=1;exitDx=0;exitDy=0;" parent="1" source="dgq8y-L6Q3fRpagye3nQ-13" edge="1">
          <mxGeometry width="50" height="50" relative="1" as="geometry">
            <mxPoint x="405" y="315" as="sourcePoint" />
            <mxPoint x="405" y="350" as="targetPoint" />
          </mxGeometry>
        </mxCell>
        <mxCell id="dgq8y-L6Q3fRpagye3nQ-207" value="" style="endArrow=classic;html=1;strokeColor=#000000;" parent="1" edge="1">
          <mxGeometry width="50" height="50" relative="1" as="geometry">
            <mxPoint x="405" y="400" as="sourcePoint" />
            <mxPoint x="405" y="440" as="targetPoint" />
          </mxGeometry>
        </mxCell>
        <mxCell id="dgq8y-L6Q3fRpagye3nQ-208" value="" style="endArrow=none;html=1;strokeColor=#000000;dashed=1;" parent="1" edge="1">
          <mxGeometry width="50" height="50" relative="1" as="geometry">
            <mxPoint x="80" y="490" as="sourcePoint" />
            <mxPoint x="80" y="440" as="targetPoint" />
          </mxGeometry>
        </mxCell>
        <mxCell id="dgq8y-L6Q3fRpagye3nQ-209" value="" style="endArrow=none;html=1;strokeColor=#000000;dashed=1;" parent="1" edge="1">
          <mxGeometry width="50" height="50" relative="1" as="geometry">
            <mxPoint x="730" y="440" as="sourcePoint" />
            <mxPoint x="80" y="440" as="targetPoint" />
          </mxGeometry>
        </mxCell>
        <mxCell id="dgq8y-L6Q3fRpagye3nQ-210" value="" style="endArrow=none;html=1;strokeColor=#000000;dashed=1;" parent="1" edge="1">
          <mxGeometry width="50" height="50" relative="1" as="geometry">
            <mxPoint x="730" y="490" as="sourcePoint" />
            <mxPoint x="730" y="440" as="targetPoint" />
          </mxGeometry>
        </mxCell>
        <mxCell id="dgq8y-L6Q3fRpagye3nQ-211" value="" style="endArrow=none;html=1;strokeColor=#000000;dashed=1;" parent="1" edge="1">
          <mxGeometry width="50" height="50" relative="1" as="geometry">
            <mxPoint x="730" y="490" as="sourcePoint" />
            <mxPoint x="80" y="490" as="targetPoint" />
          </mxGeometry>
        </mxCell>
        <mxCell id="dgq8y-L6Q3fRpagye3nQ-214" value="" style="endArrow=none;html=1;strokeColor=#000000;dashed=1;" parent="1" edge="1">
          <mxGeometry width="50" height="50" relative="1" as="geometry">
            <mxPoint x="730" y="400" as="sourcePoint" />
            <mxPoint x="80" y="400" as="targetPoint" />
          </mxGeometry>
        </mxCell>
        <mxCell id="dgq8y-L6Q3fRpagye3nQ-215" value="" style="endArrow=none;html=1;strokeColor=#000000;dashed=1;" parent="1" edge="1">
          <mxGeometry width="50" height="50" relative="1" as="geometry">
            <mxPoint x="730" y="350" as="sourcePoint" />
            <mxPoint x="80" y="350" as="targetPoint" />
          </mxGeometry>
        </mxCell>
        <mxCell id="dgq8y-L6Q3fRpagye3nQ-216" value="" style="endArrow=none;html=1;strokeColor=#000000;dashed=1;" parent="1" edge="1">
          <mxGeometry width="50" height="50" relative="1" as="geometry">
            <mxPoint x="730" y="310" as="sourcePoint" />
            <mxPoint x="80" y="310" as="targetPoint" />
          </mxGeometry>
        </mxCell>
        <mxCell id="dgq8y-L6Q3fRpagye3nQ-217" value="" style="endArrow=none;html=1;strokeColor=#000000;dashed=1;" parent="1" edge="1">
          <mxGeometry width="50" height="50" relative="1" as="geometry">
            <mxPoint x="730" y="260" as="sourcePoint" />
            <mxPoint x="80" y="260" as="targetPoint" />
          </mxGeometry>
        </mxCell>
        <mxCell id="dgq8y-L6Q3fRpagye3nQ-218" value="" style="endArrow=none;html=1;strokeColor=#000000;dashed=1;" parent="1" edge="1">
          <mxGeometry width="50" height="50" relative="1" as="geometry">
            <mxPoint x="730" y="400" as="sourcePoint" />
            <mxPoint x="730" y="350" as="targetPoint" />
          </mxGeometry>
        </mxCell>
        <mxCell id="dgq8y-L6Q3fRpagye3nQ-219" value="" style="endArrow=none;html=1;strokeColor=#000000;dashed=1;" parent="1" edge="1">
          <mxGeometry width="50" height="50" relative="1" as="geometry">
            <mxPoint x="730" y="310" as="sourcePoint" />
            <mxPoint x="730" y="260" as="targetPoint" />
          </mxGeometry>
        </mxCell>
        <mxCell id="dgq8y-L6Q3fRpagye3nQ-220" value="" style="endArrow=none;html=1;strokeColor=#000000;dashed=1;" parent="1" edge="1">
          <mxGeometry width="50" height="50" relative="1" as="geometry">
            <mxPoint x="80" y="310" as="sourcePoint" />
            <mxPoint x="80" y="260" as="targetPoint" />
          </mxGeometry>
        </mxCell>
        <mxCell id="dgq8y-L6Q3fRpagye3nQ-221" value="" style="endArrow=none;html=1;strokeColor=#000000;dashed=1;" parent="1" edge="1">
          <mxGeometry width="50" height="50" relative="1" as="geometry">
            <mxPoint x="80" y="400" as="sourcePoint" />
            <mxPoint x="80" y="350" as="targetPoint" />
          </mxGeometry>
        </mxCell>
      </root>
    </mxGraphModel>
  </diagram>
</mxfile>
